<?xml version="1.0" encoding="utf-8"?>
<!-- Generator: Adobe Illustrator 19.0.0, SVG Export Plug-In . SVG Version: 6.00 Build 0)  -->
<svg version="1.1" id="redone" xmlns="http://www.w3.org/2000/svg" xmlns:xlink="http://www.w3.org/1999/xlink" x="0px" y="0px"
	 viewBox="0 0 32 32" style="enable-background:new 0 0 32 32;" xml:space="preserve">
<symbol id="angle-double-left" viewBox="0 0 32 32">
	<path id="XMLID_453_" d="M16,23.5c-0.3,0-0.5-0.1-0.7-0.3l-6.5-6.5c-0.4-0.4-0.4-1,0-1.4l6.5-6.5c0.4-0.4,1-0.4,1.4,0
		s0.4,1,0,1.4L10.9,16l5.8,5.8c0.4,0.4,0.4,1,0,1.4C16.5,23.4,16.3,23.5,16,23.5z"/>
	<path id="XMLID_452_" d="M22.5,23.5c-0.3,0-0.5-0.1-0.7-0.3l-6.5-6.5c-0.4-0.4-0.4-1,0-1.4l6.5-6.5
		c0.4-0.4,1-0.4,1.4,0s0.4,1,0,1.4L17.4,16l5.8,5.8c0.4,0.4,0.4,1,0,1.4C23,23.4,22.8,23.5,22.5,23.5z"/>
</symbol>
<symbol id="angle-double-right" viewBox="0 0 32 32">
	<path id="XMLID_1800_" d="M16,8.5c0.3,0,0.5,0.1,0.7,0.3l6.5,6.5c0.4,0.4,0.4,1,0,1.4l-6.5,6.5c-0.4,0.4-1,0.4-1.4,0
		s-0.4-1,0-1.4l5.8-5.8l-5.8-5.8c-0.4-0.4-0.4-1,0-1.4C15.5,8.6,15.7,8.5,16,8.5z"/>
	<path id="XMLID_443_" d="M9.5,8.5c0.3,0,0.5,0.1,0.7,0.3l6.5,6.5c0.4,0.4,0.4,1,0,1.4l-6.5,6.5c-0.4,0.4-1,0.4-1.4,0
		s-0.4-1,0-1.4l5.8-5.8l-5.8-5.8c-0.4-0.4-0.4-1,0-1.4C9,8.6,9.2,8.5,9.5,8.5z"/>
</symbol>
<symbol id="angle-double-up" viewBox="0 0 32 32">
	<path id="XMLID_2717_" d="M8.5,16c0-0.3,0.1-0.5,0.3-0.7l6.5-6.5c0.4-0.4,1-0.4,1.4,0l6.5,6.5c0.4,0.4,0.4,1,0,1.4
		s-1,0.4-1.4,0L16,10.9l-5.8,5.8c-0.4,0.4-1,0.4-1.4,0C8.6,16.5,8.5,16.3,8.5,16z"/>
	<path id="XMLID_1823_" d="M8.5,22.5c0-0.3,0.1-0.5,0.3-0.7l6.5-6.5c0.4-0.4,1-0.4,1.4,0l6.5,6.5c0.4,0.4,0.4,1,0,1.4
		s-1,0.4-1.4,0L16,17.4l-5.8,5.8c-0.4,0.4-1,0.4-1.4,0C8.6,23,8.5,22.8,8.5,22.5z"/>
</symbol>
<symbol id="angle-double-down" viewBox="0 0 32 32">
	<path id="XMLID_3130_" d="M23.5,16c0,0.3-0.1,0.5-0.3,0.7l-6.5,6.5c-0.4,0.4-1,0.4-1.4,0l-6.5-6.5
		c-0.4-0.4-0.4-1,0-1.4s1-0.4,1.4,0l5.8,5.8l5.8-5.8c0.4-0.4,1-0.4,1.4,0C23.4,15.5,23.5,15.7,23.5,16z"/>
	<path id="XMLID_3127_" d="M23.5,9.5c0,0.3-0.1,0.5-0.3,0.7l-6.5,6.5c-0.4,0.4-1,0.4-1.4,0l-6.5-6.5
		c-0.4-0.4-0.4-1,0-1.4s1-0.4,1.4,0l5.8,5.8l5.8-5.8c0.4-0.4,1-0.4,1.4,0C23.4,9,23.5,9.2,23.5,9.5z"/>
</symbol>
<symbol id="angle-left" viewBox="0 0 32 32">
	<path id="XMLID_445_" d="M19.2,23.5c-0.3,0-0.5-0.1-0.7-0.3L12,16.7c-0.4-0.4-0.4-1,0-1.4l6.5-6.5c0.4-0.4,1-0.4,1.4,0
		s0.4,1,0,1.4L14.2,16l5.8,5.8c0.4,0.4,0.4,1,0,1.4C19.8,23.4,19.5,23.5,19.2,23.5z"/>
</symbol>
<symbol id="angle-right" viewBox="0 0 32 32">
	<path id="XMLID_447_" d="M12.8,8.5c0.3,0,0.5,0.1,0.7,0.3l6.5,6.5c0.4,0.4,0.4,1,0,1.4l-6.5,6.5c-0.4,0.4-1,0.4-1.4,0
		s-0.4-1,0-1.4l5.8-5.8L12,10.2c-0.4-0.4-0.4-1,0-1.4C12.2,8.6,12.5,8.5,12.8,8.5z"/>
</symbol>
<symbol id="angle-up" viewBox="0 0 32 32">
	<path id="XMLID_449_" d="M8.5,19.2c0-0.3,0.1-0.5,0.3-0.7l6.5-6.5c0.4-0.4,1-0.4,1.4,0l6.5,6.5c0.4,0.4,0.4,1,0,1.4
		s-1,0.4-1.4,0L16,14.2L10.2,20c-0.4,0.4-1,0.4-1.4,0C8.6,19.8,8.5,19.5,8.5,19.2z"/>
</symbol>
<symbol id="angle-down" viewBox="0 0 32 32">
	<path id="XMLID_451_" d="M23.5,12.8c0,0.3-0.1,0.5-0.3,0.7L16.7,20c-0.4,0.4-1,0.4-1.4,0l-6.5-6.5
		c-0.4-0.4-0.4-1,0-1.4s1-0.4,1.4,0l5.8,5.8l5.8-5.8c0.4-0.4,1-0.4,1.4,0C23.4,12.2,23.5,12.5,23.5,12.8z"/>
</symbol>
<symbol id="arrow-circle-left" viewBox="0 0 32 32">
	<path id="XMLID_1496_" d="M16,5.7C10.3,5.7,5.7,10.3,5.7,16S10.3,26.3,16,26.3S26.3,21.7,26.3,16S21.7,5.7,16,5.7z
		 M22,17h-9.6l3.3,3.3c0.4,0.4,0.4,1,0,1.4s-1,0.4-1.4,0l-5-5c-0.1-0.1-0.2-0.2-0.2-0.3C9,16.3,9,16.1,9,16s0-0.3,0.1-0.4
		c0.1-0.1,0.1-0.2,0.2-0.3l5-5c0.4-0.4,1-0.4,1.4,0s0.4,1,0,1.4L12.4,15H22c0.6,0,1,0.4,1,1S22.6,17,22,17z"/>
</symbol>
<symbol id="arrow-circle-right" viewBox="0 0 32 32">
	<path id="XMLID_2264_" d="M5.7,16c0,5.7,4.6,10.3,10.3,10.3S26.3,21.7,26.3,16S21.7,5.7,16,5.7S5.7,10.3,5.7,16z
		 M17.8,10.3l5,5c0.1,0.1,0.2,0.2,0.2,0.3C23,15.7,23,15.9,23,16s0,0.3-0.1,0.4c-0.1,0.1-0.1,0.2-0.2,0.3l-5,5c-0.4,0.4-1,0.4-1.4,0
		s-0.4-1,0-1.4l3.3-3.3H10c-0.6,0-1-0.4-1-1s0.4-1,1-1h9.6l-3.3-3.3c-0.4-0.4-0.4-1,0-1.4S17.4,9.9,17.8,10.3z"/>
</symbol>
<symbol id="arrow-circle-up" viewBox="0 0 32 32">
	<path id="XMLID_2261_" d="M16,26.3c5.7,0,10.3-4.6,10.3-10.3S21.7,5.7,16,5.7S5.7,10.3,5.7,16S10.3,26.3,16,26.3z
		 M10.3,14.2l5-5c0.1-0.1,0.2-0.2,0.3-0.2C15.7,9,15.9,9,16,9s0.3,0,0.4,0.1c0.1,0.1,0.2,0.1,0.3,0.2l5,5c0.4,0.4,0.4,1,0,1.4
		s-1,0.4-1.4,0L17,12.4V22c0,0.6-0.4,1-1,1s-1-0.4-1-1v-9.6l-3.3,3.3c-0.4,0.4-1,0.4-1.4,0S9.9,14.6,10.3,14.2z"/>
</symbol>
<symbol id="arrow-circle-down" viewBox="0 0 32 32">
	<path id="XMLID_3129_" d="M16,5.7C10.3,5.7,5.7,10.3,5.7,16S10.3,26.3,16,26.3S26.3,21.7,26.3,16S21.7,5.7,16,5.7z
		 M21.7,17.8l-5,5c-0.1,0.1-0.2,0.2-0.3,0.2C16.3,23,16.1,23,16,23s-0.3,0-0.4-0.1c-0.1-0.1-0.2-0.1-0.3-0.2l-5-5
		c-0.4-0.4-0.4-1,0-1.4s1-0.4,1.4,0l3.3,3.3V10c0-0.6,0.4-1,1-1s1,0.4,1,1v9.6l3.3-3.3c0.4-0.4,1-0.4,1.4,0S22.1,17.4,21.7,17.8z"/>
</symbol>
<symbol id="arrow-circle-o-left" viewBox="0 0 32 32">
	<path id="XMLID_1490_" d="M24.3,16c0,4.6-3.7,8.3-8.3,8.3S7.7,20.6,7.7,16s3.7-8.3,8.3-8.3S24.3,11.4,24.3,16 M26.3,16
		c0-5.7-4.6-10.3-10.3-10.3S5.7,10.3,5.7,16S10.3,26.3,16,26.3S26.3,21.7,26.3,16L26.3,16z"/>
	<path id="XMLID_176_" d="M15.7,21.7c0.4-0.4,0.4-1,0-1.4L12.4,17H22c0.6,0,1-0.4,1-1c0-0.6-0.4-1-1-1h-9.6l3.3-3.3
		c0.4-0.4,0.4-1,0-1.4c-0.4-0.4-1-0.4-1.4,0l-5,5c-0.1,0.1-0.2,0.2-0.2,0.3C9,15.7,9,15.9,9,16s0,0.3,0.1,0.4
		c0.1,0.1,0.1,0.2,0.2,0.3l5,5C14.6,22.1,15.3,22.1,15.7,21.7z"/>
</symbol>
<symbol id="arrow-circle-o-right" viewBox="0 0 32 32">
	<path id="XMLID_2267_" d="M7.7,16c0-4.6,3.7-8.3,8.3-8.3s8.3,3.7,8.3,8.3s-3.7,8.3-8.3,8.3S7.7,20.6,7.7,16 M5.7,16
		c0,5.7,4.6,10.3,10.3,10.3S26.3,21.7,26.3,16S21.7,5.7,16,5.7S5.7,10.3,5.7,16L5.7,16z"/>
	<path id="XMLID_2045_" d="M16.3,10.3c-0.4,0.4-0.4,1,0,1.4l3.3,3.3H10c-0.6,0-1,0.4-1,1c0,0.6,0.4,1,1,1l9.6,0
		l-3.3,3.3c-0.4,0.4-0.4,1,0,1.4c0.4,0.4,1,0.4,1.4,0l5-5c0.1-0.1,0.2-0.2,0.2-0.3C23,16.3,23,16.1,23,16c0-0.1,0-0.3-0.1-0.4
		c-0.1-0.1-0.1-0.2-0.2-0.3l-5-5C17.4,9.9,16.7,9.9,16.3,10.3z"/>
</symbol>
<symbol id="arrow-circle-o-up" viewBox="0 0 32 32">
	<path id="XMLID_2048_" d="M16,24.3c-4.6,0-8.3-3.7-8.3-8.3s3.7-8.3,8.3-8.3s8.3,3.7,8.3,8.3S20.6,24.3,16,24.3
		 M16,26.3c5.7,0,10.3-4.6,10.3-10.3S21.7,5.7,16,5.7S5.7,10.3,5.7,16S10.3,26.3,16,26.3L16,26.3z"/>
	<path id="XMLID_2047_" d="M10.3,15.7c0.4,0.4,1,0.4,1.4,0l3.3-3.3V22c0,0.6,0.4,1,1,1c0.6,0,1-0.4,1-1l0-9.6l3.3,3.3
		c0.4,0.4,1,0.4,1.4,0c0.4-0.4,0.4-1,0-1.4l-5-5c-0.1-0.1-0.2-0.2-0.3-0.2C16.3,9,16.1,9,16,9c-0.1,0-0.3,0-0.4,0.1
		c-0.1,0.1-0.2,0.1-0.3,0.2l-5,5C9.9,14.6,9.9,15.3,10.3,15.7z"/>
</symbol>
<symbol id="arrow-circle-o-down" viewBox="0 0 32 32">
	<path id="XMLID_3121_" d="M16,7.7c4.6,0,8.3,3.7,8.3,8.3s-3.7,8.3-8.3,8.3S7.7,20.6,7.7,16S11.4,7.7,16,7.7 M16,5.7
		C10.3,5.7,5.7,10.3,5.7,16S10.3,26.3,16,26.3S26.3,21.7,26.3,16S21.7,5.7,16,5.7L16,5.7z"/>
	<path id="XMLID_3122_" d="M21.7,16.3c-0.4-0.4-1-0.4-1.4,0L17,19.6V10c0-0.6-0.4-1-1-1s-1,0.4-1,1v9.6l-3.3-3.3
		c-0.4-0.4-1-0.4-1.4,0s-0.4,1,0,1.4l5,5c0.1,0.1,0.2,0.2,0.3,0.2C15.7,23,15.9,23,16,23s0.3,0,0.4-0.1c0.1-0.1,0.2-0.1,0.3-0.2l5-5
		C22.1,17.4,22.1,16.7,21.7,16.3z"/>
</symbol>
<symbol id="arrow-left" viewBox="0 0 32 32">
	<path id="XMLID_2053_" d="M16.5,24.6c0.6-0.6,0.6-1.5,0-2.1l-4.9-4.9l12.5,0c0.8,0,1.5-0.7,1.5-1.5
		c0-0.8-0.7-1.5-1.5-1.5H11.6l5-5c0.6-0.6,0.6-1.5,0-2.1c-0.6-0.6-1.5-0.6-2.1,0L6.9,15c-0.1,0.1-0.2,0.3-0.3,0.5
		c-0.1,0.2-0.1,0.4-0.1,0.6c0,0.2,0,0.4,0.1,0.6c0.1,0.2,0.2,0.4,0.3,0.5l7.5,7.5C15,25.1,15.9,25.1,16.5,24.6z"/>
</symbol>
<symbol id="arrow-right_1_" viewBox="0 0 32 32">
	<path id="XMLID_133_" d="M15.5,7.4c-0.6,0.6-0.6,1.5,0,2.1l4.9,4.9H8c-0.8,0-1.5,0.7-1.5,1.5s0.7,1.5,1.5,1.5h12.5
		l-5,5c-0.6,0.6-0.6,1.5,0,2.1s1.5,0.6,2.1,0l7.5-7.5c0.1-0.1,0.2-0.3,0.3-0.5c0.1-0.2,0.1-0.4,0.1-0.6s0-0.4-0.1-0.6
		c-0.1-0.2-0.2-0.4-0.3-0.5l-7.5-7.5C17,6.9,16.1,6.9,15.5,7.4z"/>
</symbol>
<symbol id="arrow-up" viewBox="0 0 32 32">
	<path id="XMLID_2051_" d="M7.5,16.5c0.6,0.6,1.5,0.6,2.1,0l4.9-4.9V24c0,0.8,0.7,1.5,1.5,1.5c0.8,0,1.5-0.7,1.5-1.5
		l0-12.5l5,5c0.6,0.6,1.5,0.6,2.1,0c0.6-0.6,0.6-1.5,0-2.1l-7.5-7.5c-0.1-0.1-0.3-0.2-0.5-0.3c-0.2-0.1-0.4-0.1-0.6-0.1
		c-0.2,0-0.4,0-0.6,0.1c-0.2,0.1-0.4,0.2-0.5,0.3l-7.5,7.5C6.9,15,6.9,15.9,7.5,16.5z"/>
</symbol>
<symbol id="arrow-down" viewBox="0 0 32 32">
	<path id="XMLID_2055_" d="M24.6,15.5c-0.6-0.6-1.5-0.6-2.1,0l-4.9,4.9l0-12.5c0-0.8-0.7-1.5-1.5-1.5
		c-0.8,0-1.5,0.7-1.5,1.5v12.5l-5-5c-0.6-0.6-1.5-0.6-2.1,0c-0.6,0.6-0.6,1.5,0,2.1l7.5,7.5c0.1,0.1,0.3,0.2,0.5,0.3
		c0.2,0.1,0.4,0.1,0.6,0.1c0.2,0,0.4,0,0.6-0.1c0.2-0.1,0.4-0.2,0.5-0.3l7.5-7.5C25.2,17,25.2,16.1,24.6,15.5z"/>
</symbol>
<symbol id="chevron-left" viewBox="0 0 32 32">
	<path id="XMLID_476_" d="M20.4,26.2c-0.4,0-0.8-0.1-1.1-0.4l-8.8-8.8c-0.6-0.6-0.6-1.5,0-2.1l8.8-8.8
		c0.6-0.6,1.5-0.6,2.1,0s0.6,1.5,0,2.1L13.7,16l7.7,7.7c0.6,0.6,0.6,1.5,0,2.1C21.1,26.1,20.8,26.2,20.4,26.2z"/>
</symbol>
<symbol id="chevron-right" viewBox="0 0 32 32">
	<path id="XMLID_578_" d="M11.6,5.8c0.4,0,0.8,0.1,1.1,0.4l8.8,8.8c0.6,0.6,0.6,1.5,0,2.1l-8.8,8.8
		c-0.6,0.6-1.5,0.6-2.1,0s-0.6-1.5,0-2.1l7.7-7.7l-7.7-7.7c-0.6-0.6-0.6-1.5,0-2.1C10.9,5.9,11.2,5.8,11.6,5.8z"/>
</symbol>
<symbol id="chevron-up" viewBox="0 0 32 32">
	<path id="XMLID_2057_" d="M5.8,20.4c0-0.4,0.1-0.8,0.4-1.1l8.8-8.8c0.6-0.6,1.5-0.6,2.1,0l8.8,8.8
		c0.6,0.6,0.6,1.5,0,2.1s-1.5,0.6-2.1,0L16,13.7l-7.7,7.7c-0.6,0.6-1.5,0.6-2.1,0C5.9,21.1,5.8,20.8,5.8,20.4z"/>
</symbol>
<symbol id="chevron-down" viewBox="0 0 32 32">
	<path id="XMLID_435_" d="M26.2,11.6c0,0.4-0.1,0.8-0.4,1.1l-8.8,8.8c-0.6,0.6-1.5,0.6-2.1,0l-8.8-8.8
		c-0.6-0.6-0.6-1.5,0-2.1s1.5-0.6,2.1,0l7.7,7.7l7.7-7.7c0.6-0.6,1.5-0.6,2.1,0C26.1,10.9,26.2,11.2,26.2,11.6z"/>
</symbol>
<symbol id="long-arrow-left" viewBox="0 0 32 32">
	<path id="XMLID_2522_" d="M11.5,21.6c0.6-0.6,0.6-1.5,0-2.1l-1.9-1.9l16.5,0c0.8,0,1.5-0.7,1.5-1.5
		c0-0.8-0.7-1.5-1.5-1.5H9.6l2-2c0.6-0.6,0.6-1.5,0-2.1s-1.5-0.6-2.1,0L4.9,15c-0.1,0.1-0.2,0.3-0.3,0.5c-0.1,0.2-0.1,0.4-0.1,0.6
		c0,0.2,0,0.4,0.1,0.6c0.1,0.2,0.2,0.4,0.3,0.5l4.5,4.5C10,22.1,10.9,22.1,11.5,21.6z"/>
</symbol>
<symbol id="long-arrow-right" viewBox="0 0 32 32">
	<path id="XMLID_2613_" d="M20.5,10.4c-0.6,0.6-0.6,1.5,0,2.1l1.9,1.9H6c-0.8,0-1.5,0.7-1.5,1.5c0,0.8,0.7,1.5,1.5,1.5
		l16.5,0l-2,2c-0.6,0.6-0.6,1.5,0,2.1c0.6,0.6,1.5,0.6,2.1,0l4.5-4.5c0.1-0.1,0.2-0.3,0.3-0.5c0.1-0.2,0.1-0.4,0.1-0.6
		c0-0.2,0-0.4-0.1-0.6c-0.1-0.2-0.2-0.4-0.3-0.5l-4.5-4.5C22.1,9.9,21.1,9.9,20.5,10.4z"/>
</symbol>
<symbol id="long-arrow-up" viewBox="0 0 32 32">
	<path id="XMLID_495_" d="M10.5,11.5c0.6,0.6,1.5,0.6,2.1,0l1.9-1.9V26c0,0.8,0.7,1.5,1.5,1.5c0.8,0,1.5-0.7,1.5-1.5
		l0-16.5l2,2c0.6,0.6,1.5,0.6,2.1,0s0.6-1.5,0-2.1l-4.5-4.5c-0.1-0.1-0.3-0.2-0.5-0.3c-0.2-0.1-0.4-0.1-0.6-0.1
		c-0.2,0-0.4,0-0.6,0.1c-0.2,0.1-0.4,0.2-0.5,0.3l-4.5,4.5C9.9,10,9.9,10.9,10.5,11.5z"/>
</symbol>
<symbol id="long-arrow-down" viewBox="0 0 32 32">
	<path id="XMLID_468_" d="M21.6,20.5c-0.6-0.6-1.5-0.6-2.1,0l-1.9,1.9l0-16.5c0-0.8-0.7-1.5-1.5-1.5
		c-0.8,0-1.5,0.7-1.5,1.5v16.5l-2-2c-0.6-0.6-1.5-0.6-2.1,0s-0.6,1.5,0,2.1l4.5,4.5c0.1,0.1,0.3,0.2,0.5,0.3
		c0.2,0.1,0.4,0.1,0.6,0.1c0.2,0,0.4,0,0.6-0.1c0.2-0.1,0.4-0.2,0.5-0.3l4.5-4.5C22.2,22,22.2,21.1,21.6,20.5z"/>
</symbol>
<symbol id="chevron-circle-left" viewBox="0 0 32 32">
	<path id="XMLID_2617_" d="M26.3,16c0-5.7-4.6-10.3-10.3-10.3S5.7,10.3,5.7,16S10.3,26.3,16,26.3S26.3,21.7,26.3,16z
		 M17.9,23.2c-0.4,0-0.8-0.1-1.1-0.4l-5.8-5.8c-0.6-0.6-0.6-1.5,0-2.1l5.8-5.8c0.6-0.6,1.5-0.6,2.1,0s0.6,1.5,0,2.1L14.2,16l4.7,4.7
		c0.6,0.6,0.6,1.5,0,2.1C18.6,23.1,18.3,23.2,17.9,23.2z"/>
</symbol>
<symbol id="chevron-circle-right" viewBox="0 0 32 32">
	<path id="XMLID_2526_" d="M5.7,16c0,5.7,4.6,10.3,10.3,10.3S26.3,21.7,26.3,16S21.7,5.7,16,5.7S5.7,10.3,5.7,16z
		 M14.1,8.8c0.4,0,0.8,0.1,1.1,0.4l5.8,5.8c0.6,0.6,0.6,1.5,0,2.1l-5.8,5.8c-0.6,0.6-1.5,0.6-2.1,0s-0.6-1.5,0-2.1l4.7-4.7l-4.7-4.7
		c-0.6-0.6-0.6-1.5,0-2.1C13.4,8.9,13.7,8.8,14.1,8.8z"/>
</symbol>
<symbol id="chevron-circle-up" viewBox="0 0 32 32">
	<path id="XMLID_2268_" d="M16,26.3c5.7,0,10.3-4.6,10.3-10.3S21.7,5.7,16,5.7S5.7,10.3,5.7,16S10.3,26.3,16,26.3z
		 M8.8,17.9c0-0.4,0.1-0.8,0.4-1.1l5.8-5.8c0.6-0.6,1.5-0.6,2.1,0l5.8,5.8c0.6,0.6,0.6,1.5,0,2.1s-1.5,0.6-2.1,0L16,14.2l-4.7,4.7
		c-0.6,0.6-1.5,0.6-2.1,0C8.9,18.6,8.8,18.3,8.8,17.9z"/>
</symbol>
<symbol id="chevron-circle-down" viewBox="0 0 32 32">
	<path id="XMLID_2529_" d="M16,5.7C10.3,5.7,5.7,10.3,5.7,16S10.3,26.3,16,26.3S26.3,21.7,26.3,16S21.7,5.7,16,5.7z
		 M23.2,14.1c0,0.4-0.1,0.8-0.4,1.1l-5.8,5.8c-0.6,0.6-1.5,0.6-2.1,0l-5.8-5.8c-0.6-0.6-0.6-1.5,0-2.1s1.5-0.6,2.1,0l4.7,4.7
		l4.7-4.7c0.6-0.6,1.5-0.6,2.1,0C23.1,13.4,23.2,13.7,23.2,14.1z"/>
</symbol>
<symbol id="caret-square-o-left" viewBox="0 0 32 32">
	<path id="XMLID_191_" d="M18.5,20.9l-7.4-4.1c-0.7-0.4-0.7-1.3,0-1.6l7.4-4.1c0.7-0.4,1.5,0.1,1.5,0.8v8.1
		C20,20.8,19.2,21.2,18.5,20.9z"/>
	<path id="XMLID_1451_" d="M23.4,7.7c0.6,0,1,0.4,1,1v14.7c0,0.6-0.4,1-1,1H8.6c-0.6,0-1-0.4-1-1V8.6c0-0.6,0.4-1,1-1
		H23.4 M23.4,5.7H8.6c-1.7,0-3,1.3-3,3v14.7c0,1.7,1.3,3,3,3h14.7c1.7,0,3-1.3,3-3V8.6C26.4,7,25,5.7,23.4,5.7L23.4,5.7z"/>
</symbol>
<symbol id="caret-square-o-right" viewBox="0 0 32 32">
	<path id="XMLID_1455_" d="M13.5,11.1l7.4,4.1c0.7,0.4,0.7,1.3,0,1.6l-7.4,4.1c-0.7,0.4-1.5-0.1-1.5-0.8l0-8.1
		C12,11.2,12.8,10.8,13.5,11.1z"/>
	<path id="XMLID_193_" d="M8.6,24.4c-0.6,0-1-0.4-1-1V8.6c0-0.6,0.4-1,1-1h14.7c0.6,0,1,0.4,1,1v14.7c0,0.6-0.4,1-1,1
		H8.6 M8.6,26.4h14.7c1.7,0,3-1.3,3-3V8.7c0-1.7-1.3-3-3-3H8.7c-1.7,0-3,1.3-3,3v14.7C5.7,25,7,26.4,8.6,26.4L8.6,26.4z"/>
</symbol>
<symbol id="caret-square-o-up" viewBox="0 0 32 32">
	<path id="XMLID_1461_" d="M11.1,18.5l4.1-7.4c0.4-0.7,1.3-0.7,1.6,0l4.1,7.4c0.4,0.7-0.1,1.5-0.8,1.5h-8.1
		C11.2,20,10.8,19.2,11.1,18.5z"/>
	<path id="XMLID_1458_" d="M24.4,23.4c0,0.6-0.4,1-1,1H8.6c-0.6,0-1-0.4-1-1V8.6c0-0.6,0.4-1,1-1h14.7c0.6,0,1,0.4,1,1
		V23.4 M26.4,23.4V8.6c0-1.7-1.3-3-3-3H8.7c-1.7,0-3,1.3-3,3v14.7c0,1.7,1.3,3,3,3h14.7C25,26.4,26.4,25,26.4,23.4L26.4,23.4z"/>
</symbol>
<symbol id="caret-square-o-down" viewBox="0 0 32 32">
	<path id="XMLID_2348_" d="M20.9,13.5l-4.1,7.4c-0.4,0.7-1.3,0.7-1.6,0l-4.1-7.4c-0.4-0.7,0.1-1.5,0.8-1.5l8.1,0
		C20.8,12,21.2,12.8,20.9,13.5z"/>
	<path id="XMLID_2341_" d="M7.7,8.6c0-0.6,0.4-1,1-1h14.7c0.6,0,1,0.4,1,1v14.7c0,0.6-0.4,1-1,1H8.6c-0.6,0-1-0.4-1-1V8.6 M5.7,8.6
		v14.7c0,1.7,1.3,3,3,3h14.7c1.7,0,3-1.3,3-3V8.7c0-1.7-1.3-3-3-3H8.6C7,5.7,5.7,7,5.7,8.6L5.7,8.6z"/>
</symbol>
<symbol id="exchange" viewBox="0 0 32 32">
	<path id="XMLID_9_" d="M11.5,25.9c0.6-0.6,0.6-1.5,0-2.1l-1.9-1.9l12.5,0c0.8,0,1.5-0.7,1.5-1.5s-0.7-1.5-1.5-1.5
		l-12.5,0l2-2c0.6-0.6,0.6-1.5,0-2.1s-1.5-0.6-2.1,0l-4.5,4.5c-0.1,0.1-0.2,0.3-0.3,0.5c-0.1,0.2-0.1,0.4-0.1,0.6s0,0.4,0.1,0.6
		c0.1,0.2,0.2,0.4,0.3,0.5l4.5,4.5C10,26.4,10.9,26.4,11.5,25.9z"/>
	<path id="XMLID_7_" d="M20.5,6.1c-0.6,0.6-0.6,1.5,0,2.1l1.9,1.9H10c-0.8,0-1.5,0.7-1.5,1.5s0.7,1.5,1.5,1.5h12.5l-2,2
		c-0.6,0.6-0.6,1.5,0,2.1c0.6,0.6,1.5,0.6,2.1,0l4.5-4.5c0.1-0.1,0.2-0.3,0.3-0.5c0.1-0.2,0.1-0.4,0.1-0.6s0-0.4-0.1-0.6
		c-0.1-0.2-0.2-0.4-0.3-0.5l-4.5-4.5C22.1,5.6,21.1,5.6,20.5,6.1z"/>
	<circle id="XMLID_290_" cx="26.1" cy="20.3" r="1.5"/>
	<circle id="XMLID_1026_" cx="6" cy="11.7" r="1.5"/>
</symbol>
<symbol id="compress" viewBox="0 0 32 32">
		<path id="XMLID_1040_" d="M25.3,14.5c0-0.8-0.7-1.5-1.5-1.5h-2.7l4.7-4.7c0.6-0.6,0.6-1.5,0-2.1c-0.6-0.6-1.5-0.6-2.1,0L19,10.9
			V8.1c0-0.8-0.7-1.5-1.5-1.5c-0.8,0-1.5,0.7-1.5,1.5v6.4c0,0.2,0,0.4,0.1,0.6c0.1,0.2,0.2,0.3,0.3,0.5s0.3,0.2,0.5,0.3
			c0.2,0.1,0.4,0.1,0.6,0.1h6.3C24.6,16,25.3,15.3,25.3,14.5z"/>
		<path id="XMLID_2342_" d="M6.7,17.5c0,0.8,0.7,1.5,1.5,1.5h2.7l-4.7,4.7c-0.6,0.6-0.6,1.5,0,2.1s1.5,0.6,2.1,0l4.7-4.7v2.8
			c0,0.8,0.7,1.5,1.5,1.5s1.5-0.7,1.5-1.5v-6.4c0-0.2,0-0.4-0.1-0.6c-0.1-0.2-0.2-0.3-0.3-0.5c-0.1-0.1-0.3-0.2-0.5-0.3
			C14.9,16,14.7,16,14.5,16H8.2C7.4,16,6.7,16.7,6.7,17.5z"/>
</symbol>
<symbol id="expand" viewBox="0 0 32 32">
	
		<path id="XMLID_480_" d="M17,7.2c0,0.8,0.7,1.5,1.5,1.5h2.7l-4.7,4.7c-0.6,0.6-0.6,1.5,0,2.1c0.6,0.6,1.5,0.6,2.1,0l4.7-4.7v2.8
			c0,0.8,0.7,1.5,1.5,1.5c0.8,0,1.5-0.7,1.5-1.5V7.2c0-0.2,0-0.4-0.1-0.6c-0.1-0.2-0.2-0.3-0.3-0.5c-0.1-0.1-0.3-0.2-0.5-0.3
			c-0.2-0.1-0.4-0.1-0.6-0.1h-6.3C17.7,5.7,17,6.4,17,7.2z"/>
		<path id="XMLID_433_" d="M15,24.8c0-0.8-0.7-1.5-1.5-1.5h-2.7l4.7-4.7c0.6-0.6,0.6-1.5,0-2.1c-0.6-0.6-1.5-0.6-2.1,0l-4.7,4.7
			v-2.8c0-0.8-0.7-1.5-1.5-1.5s-1.5,0.7-1.5,1.5v6.4c0,0.2,0,0.4,0.1,0.6c0.1,0.2,0.2,0.3,0.3,0.5c0.1,0.1,0.3,0.2,0.5,0.3
			c0.2,0.1,0.4,0.1,0.6,0.1h6.3C14.3,26.3,15,25.6,15,24.8z"/>
	
</symbol>
<symbol id="arrows" viewBox="0 0 32 32">
	<path id="XMLID_397_" d="M28.6,16c0-0.2,0-0.4-0.1-0.6c0-0.1-0.1-0.1-0.1-0.2c0,0,0-0.1-0.1-0.1c-0.1-0.1-0.1-0.2-0.2-0.2l-3.5-3.5
		c-0.6-0.6-1.5-0.6-2.1,0s-0.6,1.5,0,2.1l0.9,0.9H8.6l0.9-0.9c0.6-0.6,0.6-1.5,0-2.1s-1.5-0.6-2.1,0l-3.3,3.3
		C3.7,15,3.5,15.5,3.5,16c0,0,0,0,0,0c0,0,0,0,0,0c0,0.2,0,0.4,0.1,0.6c0,0.1,0.1,0.1,0.1,0.2c0,0,0,0.1,0.1,0.1
		c0.1,0.1,0.1,0.2,0.2,0.2l3.5,3.5c0.6,0.6,1.5,0.6,2.1,0s0.6-1.5,0-2.1l-0.9-0.9h14.8l-0.9,0.9c-0.6,0.6-0.6,1.5,0,2.1
		s1.5,0.6,2.1,0l3.3-3.3C28.3,17,28.6,16.5,28.6,16C28.6,16,28.6,16,28.6,16C28.6,16,28.6,16,28.6,16z"/>
	<path id="XMLID_562_" d="M16,3.5c-0.2,0-0.4,0-0.6,0.1c-0.1,0-0.1,0.1-0.2,0.1c0,0-0.1,0-0.1,0.1c-0.1,0.1-0.2,0.1-0.2,0.2
		l-3.5,3.5c-0.6,0.6-0.6,1.5,0,2.1s1.5,0.6,2.1,0l0.9-0.9v14.8l-0.9-0.9c-0.6-0.6-1.5-0.6-2.1,0s-0.6,1.5,0,2.1l3.3,3.3
		c0.3,0.4,0.7,0.7,1.3,0.7c0,0,0,0,0,0c0,0,0,0,0,0c0.2,0,0.4,0,0.6-0.1c0.1,0,0.1-0.1,0.2-0.1c0,0,0.1,0,0.1-0.1
		c0.1-0.1,0.2-0.1,0.2-0.2l3.5-3.5c0.6-0.6,0.6-1.5,0-2.1s-1.5-0.6-2.1,0l-0.9,0.9V8.6l0.9,0.9c0.6,0.6,1.5,0.6,2.1,0s0.6-1.5,0-2.1
		l-3.3-3.3C17,3.7,16.6,3.5,16,3.5C16,3.5,16,3.5,16,3.5C16,3.5,16,3.5,16,3.5z"/>
</symbol>
<symbol id="arrows-h" viewBox="0 0 32 32">
	<path id="XMLID_2357_" d="M27.6,16c0-0.2,0-0.4-0.1-0.6c0-0.1-0.1-0.1-0.1-0.2c0,0,0-0.1-0.1-0.1c-0.1-0.1-0.1-0.2-0.2-0.2
		l-4.5-4.5c-0.6-0.6-1.5-0.6-2.1,0s-0.6,1.5,0,2.1l1.9,1.9H9.6l1.9-1.9c0.6-0.6,0.6-1.5,0-2.1s-1.5-0.6-2.1,0l-4.3,4.3
		C4.7,15,4.5,15.5,4.5,16c0,0,0,0,0,0c0,0,0,0,0,0c0,0.2,0,0.4,0.1,0.6c0,0.1,0.1,0.1,0.1,0.2c0,0,0,0.1,0.1,0.1
		c0.1,0.1,0.1,0.2,0.2,0.2l4.5,4.5c0.6,0.6,1.5,0.6,2.1,0s0.6-1.5,0-2.1l-1.9-1.9h12.8l-1.9,1.9c-0.6,0.6-0.6,1.5,0,2.1
		s1.5,0.6,2.1,0l4.3-4.3C27.3,17,27.6,16.5,27.6,16C27.6,16,27.6,16,27.6,16C27.6,16,27.6,16,27.6,16z"/>
</symbol>
	<symbol id="full-screen" viewBox="0 0 32 32">
		<path id="XMLID_141_" d="M18,6.2c0,0.8,0.7,1.5,1.5,1.5h2.7l-4.7,4.7c-0.6,0.6-0.6,1.5,0,2.1c0.6,0.6,1.5,0.6,2.1,0
			l4.7-4.7v2.8c0,0.8,0.7,1.5,1.5,1.5c0.8,0,1.5-0.7,1.5-1.5V6.2c0-0.2,0-0.4-0.1-0.6c-0.1-0.2-0.2-0.3-0.3-0.5
			c-0.1-0.1-0.3-0.2-0.5-0.3c-0.2-0.1-0.4-0.1-0.6-0.1h-6.3C18.7,4.7,18,5.4,18,6.2z"/>
		<path id="XMLID_134_" d="M14,25.8c0-0.8-0.7-1.5-1.5-1.5H9.8l4.7-4.7c0.6-0.6,0.6-1.5,0-2.1c-0.6-0.6-1.5-0.6-2.1,0
			l-4.7,4.7v-2.8c0-0.8-0.7-1.5-1.5-1.5s-1.5,0.7-1.5,1.5v6.4c0,0.2,0,0.4,0.1,0.6c0.1,0.2,0.2,0.3,0.3,0.5c0.1,0.1,0.3,0.2,0.5,0.3
			c0.2,0.1,0.4,0.1,0.6,0.1h6.3C13.3,27.3,14,26.6,14,25.8z"/>
		<path id="XMLID_143_" d="M6.2,14c0.8,0,1.5-0.7,1.5-1.5V9.8l4.7,4.7c0.6,0.6,1.5,0.6,2.1,0c0.6-0.6,0.6-1.5,0-2.1
			L9.8,7.7h2.8c0.8,0,1.5-0.7,1.5-1.5s-0.7-1.5-1.5-1.5H6.2c-0.2,0-0.4,0-0.6,0.1C5.4,4.9,5.3,5,5.1,5.1C5,5.3,4.9,5.4,4.8,5.6
			C4.7,5.8,4.7,6,4.7,6.2v6.3C4.7,13.3,5.4,14,6.2,14z"/>
		<path id="XMLID_142_" d="M25.8,18c-0.8,0-1.5,0.7-1.5,1.5v2.7l-4.7-4.7c-0.6-0.6-1.5-0.6-2.1,0
			c-0.6,0.6-0.6,1.5,0,2.1l4.7,4.7h-2.8c-0.8,0-1.5,0.7-1.5,1.5s0.7,1.5,1.5,1.5h6.4c0.2,0,0.4,0,0.6-0.1c0.2-0.1,0.3-0.2,0.5-0.3
			c0.1-0.1,0.2-0.3,0.3-0.5c0.1-0.2,0.1-0.4,0.1-0.6v-6.3C27.3,18.7,26.6,18,25.8,18z"/>
	</symbol>
	<symbol id="part-screen" viewBox="0 0 32 32">
		<path id="XMLID_146_" d="M26.3,13.5c0-0.8-0.7-1.5-1.5-1.5h-2.7l4.7-4.7c0.6-0.6,0.6-1.5,0-2.1
			c-0.6-0.6-1.5-0.6-2.1,0L20,9.9V7.1c0-0.8-0.7-1.5-1.5-1.5c-0.8,0-1.5,0.7-1.5,1.5v6.4c0,0.2,0,0.4,0.1,0.6
			c0.1,0.2,0.2,0.3,0.3,0.5s0.3,0.2,0.5,0.3c0.2,0.1,0.4,0.1,0.6,0.1h6.3C25.6,15,26.3,14.3,26.3,13.5z"/>
		<path id="XMLID_145_" d="M5.7,18.5c0,0.8,0.7,1.5,1.5,1.5h2.7l-4.7,4.7c-0.6,0.6-0.6,1.5,0,2.1s1.5,0.6,2.1,0l4.7-4.7
			v2.8c0,0.8,0.7,1.5,1.5,1.5s1.5-0.7,1.5-1.5v-6.4c0-0.2,0-0.4-0.1-0.6c-0.1-0.2-0.2-0.3-0.3-0.5c-0.1-0.1-0.3-0.2-0.5-0.3
			C13.9,17,13.7,17,13.5,17H7.2C6.4,17,5.7,17.7,5.7,18.5z"/>
		<path id="XMLID_144_" d="M13.5,5.7c-0.8,0-1.5,0.7-1.5,1.5v2.7L7.3,5.1c-0.6-0.6-1.5-0.6-2.1,0s-0.6,1.5,0,2.1L9.9,12
			H7.1c-0.8,0-1.5,0.7-1.5,1.5S6.3,15,7.1,15h6.4c0.2,0,0.4,0,0.6-0.1c0.2-0.1,0.3-0.2,0.5-0.3c0.1-0.1,0.2-0.3,0.3-0.5
			c0.1-0.2,0.1-0.4,0.1-0.6V7.2C15,6.4,14.3,5.7,13.5,5.7z"/>
		<path id="XMLID_147_" d="M18.5,26.3c0.8,0,1.5-0.7,1.5-1.5v-2.7l4.7,4.7c0.6,0.6,1.5,0.6,2.1,0c0.6-0.6,0.6-1.5,0-2.1
			L22.1,20h2.8c0.8,0,1.5-0.7,1.5-1.5c0-0.8-0.7-1.5-1.5-1.5h-6.4c-0.2,0-0.4,0-0.6,0.1c-0.2,0.1-0.3,0.2-0.5,0.3
			c-0.1,0.1-0.2,0.3-0.3,0.5C17,18.1,17,18.3,17,18.5v6.3C17,25.6,17.7,26.3,18.5,26.3z"/>
	</symbol>
</svg>
